<svg width="101" height="27" viewBox="0 0 101 27" fill="none" xmlns="http://www.w3.org/2000/svg">
<path fill-rule="evenodd" clip-rule="evenodd" d="M14.3154 0.847168C14.4161 2.16184 14.0003 3.46398 13.1564 4.47706C12.7523 4.97967 12.2395 5.38403 11.6564 5.65969C11.0734 5.93535 10.4354 6.07513 9.79054 6.06849C9.7494 5.43628 9.83326 4.80215 10.0373 4.20237C10.2414 3.60259 10.5617 3.04891 10.9799 2.57299C11.8352 1.59878 13.0261 0.982583 14.3154 0.847168ZM16.6672 10.4158C16.2388 11.1707 16.0082 12.0217 15.997 12.8897C15.9981 13.866 16.2865 14.8204 16.8263 15.634C17.3662 16.4475 18.1335 17.0841 19.0327 17.4644C18.6792 18.6129 18.1463 19.6982 17.4537 20.6803C16.5237 22.0716 15.5485 23.4308 14.0007 23.4559C13.2646 23.4729 12.7677 23.2612 12.25 23.0407C11.7099 22.8106 11.1471 22.5709 10.2665 22.5709C9.3325 22.5709 8.74452 22.8183 8.17743 23.057C7.68738 23.2632 7.21292 23.4629 6.54427 23.4906C5.07026 23.5452 3.94377 22.0057 2.97989 20.6275C1.05338 17.8129 -0.446728 12.6955 1.56438 9.21347C2.02866 8.37917 2.70114 7.67936 3.51629 7.18223C4.33144 6.6851 5.26147 6.4076 6.21575 6.37677C7.05175 6.35957 7.85394 6.68179 8.55725 6.96428C9.09511 7.18033 9.57514 7.37314 9.96822 7.37314C10.3138 7.37314 10.7804 7.18794 11.3242 6.9721C12.1809 6.63211 13.2291 6.2161 14.2972 6.32822C15.1158 6.35383 15.9172 6.56997 16.6377 6.95946C17.3581 7.34896 17.9779 7.90108 18.4476 8.57198C17.7081 9.0266 17.0957 9.66087 16.6672 10.4158ZM33.3021 20.1397H28.5687L27.432 23.4961H25.4271L29.9105 11.0781H31.9935L36.4769 23.4961H34.4378L33.3021 20.1397ZM29.0589 18.5908H32.8109L30.9613 13.1436H30.9095L29.0589 18.5908ZM42.3812 23.591C44.6537 23.591 46.1595 21.7834 46.1595 18.9699C46.1595 16.1643 44.6449 14.3479 42.347 14.3479C41.7667 14.3291 41.1921 14.4681 40.6845 14.7499C40.1769 15.0318 39.7551 15.446 39.4642 15.9485H39.43V14.4426H37.6312V26.4914H39.4896V22.007H39.5326C39.8107 22.5119 40.2255 22.9283 40.7293 23.2084C41.2331 23.4885 41.8056 23.6211 42.3812 23.591ZM41.8568 15.9319C43.3021 15.9319 44.2494 17.1369 44.2494 18.9699H44.2493C44.2493 20.8195 43.3021 22.0158 41.8568 22.0158C40.4369 22.0158 39.4818 20.7942 39.4818 18.9699C39.4818 17.1623 40.4369 15.9319 41.8568 15.9319ZM56.1249 18.9699C56.1249 21.7834 54.6185 23.591 52.3461 23.591C51.7704 23.6211 51.1979 23.4885 50.6941 23.2084C50.1903 22.9283 49.7756 22.5119 49.4974 22.007H49.4544V26.4914H47.596V14.4426H49.3949V15.9485H49.429C49.72 15.446 50.1417 15.0318 50.6493 14.7499C51.157 14.4681 51.7315 14.3291 52.3118 14.3479C54.6097 14.3479 56.1249 16.1643 56.1249 18.9699ZM54.2142 18.9699C54.2142 17.1369 53.2669 15.9319 51.8216 15.9319C50.4017 15.9319 49.4466 17.1623 49.4466 18.9699C49.4466 20.7942 50.4017 22.0158 51.8216 22.0158C53.2669 22.0158 54.2142 20.8195 54.2142 18.9699ZM65.6786 22.0762C64.0438 22.0762 62.8475 21.2676 62.7098 20.0362L60.8074 20.0361C60.9276 22.2822 62.7869 23.7031 65.5408 23.7031C68.4842 23.7031 70.3338 22.248 70.3338 19.9248C70.3338 18.1084 69.2762 17.0849 66.7284 16.4824L65.3602 16.1465C63.7596 15.751 63.1053 15.2344 63.1053 14.3565C63.1053 13.2549 64.1297 12.4981 65.6268 12.4981C67.1239 12.4981 68.1483 13.2461 68.2606 14.4854H70.1366C70.076 12.3428 68.2772 10.8711 65.6522 10.8711C63.0018 10.8711 61.1346 12.3428 61.1346 14.4854C61.1346 16.2158 62.1932 17.2822 64.4735 17.833L66.0829 18.2207C67.6922 18.6162 68.3719 19.1934 68.3719 20.1572C68.3719 21.2676 67.245 22.0762 65.6786 22.0762ZM74.3465 12.2998V14.4424H76.0682V15.9141H74.3465V20.9053C74.3465 21.6807 74.6913 22.042 75.4481 22.042C75.6525 22.0384 75.8565 22.0241 76.0594 21.999V23.4619C75.7192 23.5255 75.3733 23.5543 75.0272 23.5478C73.1942 23.5478 72.4793 22.8593 72.4793 21.1035V15.9141H71.1629V14.4424H72.4793V12.2998H74.3465ZM81.3583 14.3311C78.7421 14.3311 77.0643 16.1211 77.0643 18.9697C77.0643 21.8262 78.7254 23.6084 81.3583 23.6084C83.9921 23.6084 85.6532 21.8262 85.6532 18.9697C85.6532 16.1211 83.9833 14.3311 81.3583 14.3311ZM81.3583 15.8623C82.8641 15.8623 83.7596 17.0156 83.7596 18.9697C83.7596 20.9316 82.8641 22.0762 81.3583 22.0762C79.8524 22.0762 78.9569 20.9316 78.9569 18.9697C78.9569 17.0244 79.8524 15.8623 81.3583 15.8623ZM87.1854 14.4425H88.9579V15.9835H89.0009C89.1208 15.5022 89.4027 15.0769 89.7993 14.779C90.1959 14.4811 90.683 14.3288 91.1786 14.3478C91.3928 14.347 91.6063 14.3703 91.8153 14.4171V16.1554C91.5449 16.0728 91.2629 16.0348 90.9803 16.0431C90.7103 16.0321 90.4412 16.0797 90.1913 16.1826C89.9415 16.2855 89.7169 16.4412 89.5329 16.6391C89.3489 16.837 89.21 17.0724 89.1255 17.3291C89.0411 17.5857 89.0132 17.8576 89.0438 18.1261V23.4962H87.1854L87.1854 14.4425ZM96.4852 23.6084C98.5331 23.6084 100.134 22.4805 100.384 20.8369L98.619 20.8369C98.4541 21.246 98.1615 21.5909 97.7848 21.8203C97.4081 22.0498 96.9674 22.1515 96.5282 22.1103C96.1939 22.1227 95.8608 22.0637 95.5511 21.9374C95.2413 21.8111 94.962 21.6203 94.7317 21.3778C94.5013 21.1352 94.3252 20.8464 94.215 20.5306C94.1048 20.2148 94.0631 19.8791 94.0926 19.5459V19.4336H100.487V18.7969C100.487 16.0518 98.912 14.3311 96.4071 14.3311C93.8602 14.3311 92.2167 16.1729 92.2167 19.0127C92.2167 21.8437 93.8514 23.6084 96.4852 23.6084ZM98.6278 18.1348H94.1014C94.1006 17.8321 94.1598 17.5323 94.2755 17.2527C94.3912 16.973 94.5611 16.7191 94.7755 16.5054C94.9898 16.2918 95.2444 16.1227 95.5244 16.008C95.8045 15.8933 96.1045 15.8351 96.4071 15.8369C96.7071 15.8305 97.0052 15.8861 97.2826 16.0003C97.5601 16.1145 97.811 16.2849 98.0195 16.5006C98.228 16.7164 98.3897 16.9729 98.4944 17.2541C98.599 17.5354 98.6445 17.8352 98.6278 18.1348Z" fill="#6B6B78"/>
<path fill-rule="evenodd" clip-rule="evenodd" d="M50.9827 1.43652H50.094V7.69726H50.9827V1.43652ZM28.8264 1.7304C29.216 1.70244 29.607 1.7613 29.9711 1.90274C30.3352 2.04417 30.6634 2.26465 30.932 2.54828C31.2006 2.8319 31.4029 3.1716 31.5243 3.54287C31.6457 3.91414 31.6832 4.30773 31.634 4.69524C31.634 6.60149 30.6038 7.69724 28.8264 7.69724H26.6711V1.7304H28.8264ZM27.5979 6.8534H28.7229C29.0013 6.87005 29.2799 6.8244 29.5384 6.71978C29.797 6.61517 30.0289 6.45422 30.2174 6.24865C30.4059 6.04309 30.5462 5.79808 30.6281 5.53146C30.7099 5.26484 30.7313 4.98333 30.6907 4.7074C30.7284 4.43257 30.7048 4.1528 30.6217 3.88813C30.5386 3.62347 30.398 3.38047 30.2099 3.17654C30.0218 2.97261 29.791 2.8128 29.5339 2.70856C29.2768 2.60433 28.9999 2.55824 28.7229 2.57361H27.5979V6.8534ZM32.6809 5.4438C32.6526 5.14788 32.6864 4.84931 32.7803 4.56724C32.8741 4.28518 33.0259 4.02583 33.2258 3.80585C33.4258 3.58587 33.6695 3.4101 33.9413 3.28983C34.2132 3.16955 34.5072 3.10742 34.8044 3.10742C35.1017 3.10742 35.3957 3.16955 35.6675 3.28983C35.9394 3.4101 36.1831 3.58587 36.383 3.80585C36.583 4.02583 36.7347 4.28518 36.8286 4.56724C36.9224 4.84931 36.9563 5.14788 36.928 5.4438C36.9568 5.74002 36.9234 6.039 36.8298 6.32153C36.7362 6.60405 36.5845 6.86387 36.3845 7.08429C36.1845 7.3047 35.9406 7.48083 35.6685 7.60137C35.3964 7.7219 35.1021 7.78417 34.8044 7.78417C34.5068 7.78417 34.2125 7.7219 33.9404 7.60137C33.6682 7.48083 33.4243 7.3047 33.2243 7.08429C33.0244 6.86387 32.8727 6.60405 32.7791 6.32153C32.6855 6.039 32.6521 5.74002 32.6809 5.4438ZM36.0139 5.4438C36.0139 4.46773 35.5754 3.89693 34.8059 3.89693C34.0334 3.89693 33.5989 4.46773 33.5989 5.44381C33.5989 6.4277 34.0335 6.9941 34.8059 6.9941C35.5754 6.99409 36.0139 6.42378 36.0139 5.4438H36.0139ZM41.6516 7.69727H42.5735L43.8098 3.19434H42.9211L42.1184 6.63034H42.0481L41.1223 3.19434H40.2698L39.344 6.63034H39.2776L38.471 3.19434H37.5696L38.8108 7.69727H39.7239L40.6506 4.38086H40.721L41.6516 7.69727ZM44.8538 3.19438H45.7092V3.90971H45.7756C45.8883 3.65279 46.0783 3.43742 46.3192 3.29361C46.56 3.14981 46.8398 3.08473 47.1194 3.10746C47.3385 3.09099 47.5585 3.12402 47.7631 3.20412C47.9677 3.28421 48.1516 3.40932 48.3013 3.57016C48.451 3.73101 48.5626 3.92347 48.6278 4.13329C48.693 4.34311 48.7101 4.56491 48.678 4.78226V7.69726H47.7893V5.00542C47.7893 4.28179 47.4748 3.92192 46.8176 3.92192C46.6689 3.91499 46.5204 3.94031 46.3823 3.99614C46.2442 4.05197 46.1199 4.13699 46.0178 4.24538C45.9156 4.35376 45.8382 4.48295 45.7906 4.62408C45.7431 4.76521 45.7267 4.91495 45.7424 5.06303V7.69731H44.8537L44.8538 3.19438ZM52.218 5.44388C52.1897 5.14795 52.2236 4.84936 52.3175 4.56728C52.4113 4.2852 52.5631 4.02585 52.7631 3.80586C52.963 3.58588 53.2068 3.41011 53.4786 3.28983C53.7505 3.16955 54.0445 3.10742 54.3418 3.10742C54.6391 3.10742 54.9331 3.16955 55.205 3.28983C55.4768 3.41011 55.7206 3.58588 55.9205 3.80586C56.1205 4.02585 56.2723 4.2852 56.3661 4.56728C56.46 4.84936 56.4939 5.14795 56.4656 5.44388C56.4944 5.74012 56.4609 6.0391 56.3673 6.32163C56.2737 6.60415 56.122 6.86396 55.922 7.08437C55.7219 7.30478 55.478 7.48091 55.2059 7.60143C54.9338 7.72196 54.6394 7.78423 54.3418 7.78423C54.0442 7.78423 53.7498 7.72196 53.4777 7.60143C53.2056 7.48091 52.9616 7.30478 52.7616 7.08437C52.5616 6.86396 52.4099 6.60415 52.3163 6.32163C52.2227 6.0391 52.1892 5.74012 52.218 5.44388ZM55.551 5.44388C55.551 4.46781 55.1125 3.89701 54.343 3.89701C53.5706 3.89701 53.136 4.46781 53.136 5.44389C53.136 6.42778 53.5706 6.99418 54.343 6.99418C55.1125 6.99417 55.551 6.42386 55.551 5.44388ZM59.0759 5.07958C58.0046 5.14599 57.4011 5.61327 57.4011 6.42382C57.4019 6.61387 57.4424 6.80166 57.5202 6.97508C57.598 7.14849 57.7112 7.30369 57.8526 7.43065C57.994 7.55762 58.1605 7.65355 58.3412 7.71225C58.522 7.77095 58.7131 7.79111 58.9021 7.77145C59.1699 7.78384 59.4363 7.72492 59.6739 7.6007C59.9115 7.47649 60.1119 7.29144 60.2546 7.06445H60.325V7.69726H61.1804V4.6206C61.1804 3.66942 60.5437 3.10742 59.4148 3.10742C58.3933 3.10742 57.6658 3.60351 57.575 4.37695H58.4353C58.5339 4.05859 58.8777 3.87646 59.3738 3.87646C59.9812 3.87646 60.2957 4.14501 60.2957 4.6206V5.00927L59.0759 5.07958ZM60.2957 5.66259V6.03905C60.286 6.1811 60.2479 6.31975 60.1836 6.44677C60.1193 6.57379 60.0301 6.68658 59.9213 6.77842C59.8126 6.87026 59.6864 6.93928 59.5504 6.98137C59.4144 7.02346 59.2713 7.03776 59.1297 7.02342C58.6462 7.02342 58.2947 6.78758 58.2947 6.38231C58.2947 5.98534 58.5759 5.7744 59.196 5.7329L60.2957 5.66259ZM62.3484 5.44386C62.3484 4.02101 63.0798 3.11964 64.2175 3.11964C64.4989 3.10668 64.7782 3.17408 65.0228 3.31397C65.2673 3.45387 65.4669 3.66048 65.5984 3.90964H65.6648V1.43652H66.5535V7.69726H65.7019V6.98583H65.6316C65.49 7.23332 65.2834 7.43736 65.0341 7.57584C64.7849 7.71432 64.5025 7.78198 64.2175 7.77147C63.072 7.77152 62.3484 6.87013 62.3484 5.44386ZM63.2664 5.44386C63.2664 6.39894 63.7166 6.97365 64.4695 6.97365C65.2185 6.97365 65.6814 6.39065 65.6814 5.44777C65.6814 4.50929 65.2136 3.91798 64.4695 3.91798C63.7214 3.91798 63.2663 4.49659 63.2663 5.44386H63.2664ZM70.3296 4.56724C70.2358 4.84931 70.2019 5.14788 70.2302 5.4438C70.2014 5.74002 70.2348 6.039 70.3284 6.32153C70.422 6.60405 70.5737 6.86387 70.7737 7.08429C70.9736 7.3047 71.2175 7.48083 71.4897 7.60137C71.7618 7.7219 72.0561 7.78417 72.3537 7.78417C72.6514 7.78417 72.9457 7.7219 73.2178 7.60137C73.4899 7.48083 73.7338 7.3047 73.9338 7.08429C74.1338 6.86387 74.2855 6.60405 74.3791 6.32153C74.4727 6.039 74.5061 5.74002 74.4773 5.4438C74.5056 5.14788 74.4717 4.84931 74.3779 4.56724C74.2841 4.28518 74.1323 4.02583 73.9324 3.80585C73.7324 3.58587 73.4887 3.4101 73.2169 3.28983C72.945 3.16955 72.651 3.10742 72.3537 3.10742C72.0565 3.10742 71.7625 3.16955 71.4906 3.28983C71.2188 3.4101 70.9751 3.58587 70.7751 3.80585C70.5752 4.02583 70.4234 4.28518 70.3296 4.56724ZM72.3552 3.89693C73.1247 3.89693 73.5632 4.46773 73.5632 5.4438C73.5632 6.42378 73.1247 6.99409 72.3552 6.9941C71.5828 6.9941 71.1482 6.4277 71.1482 5.44381C71.1482 4.46773 71.5828 3.89693 72.3552 3.89693ZM75.6697 3.19438H76.5251V3.90971H76.5915C76.7042 3.65279 76.8942 3.43742 77.1351 3.29361C77.3759 3.14981 77.6557 3.08473 77.9353 3.10746C78.1544 3.09099 78.3744 3.12402 78.579 3.20412C78.7836 3.28421 78.9675 3.40932 79.1172 3.57016C79.2669 3.73101 79.3785 3.92347 79.4437 4.13329C79.5089 4.34311 79.526 4.56491 79.4939 4.78226V7.69726H78.6052V5.00542C78.6052 4.28179 78.2908 3.92192 77.6335 3.92192C77.4848 3.91499 77.3363 3.94031 77.1982 3.99614C77.0602 4.05197 76.9358 4.13699 76.8337 4.24538C76.7316 4.35376 76.6541 4.48295 76.6066 4.62408C76.559 4.76521 76.5426 4.91495 76.5583 5.06303V7.69731H75.6697V3.19438ZM84.5154 3.21484V2.07324H83.6257V3.2148H82.9109V3.96334H83.6257V6.50634C83.6257 7.3745 84.0193 7.72216 85.0076 7.72216C85.1697 7.72049 85.3314 7.7053 85.491 7.67675V6.93652C85.3785 6.94982 85.2654 6.95667 85.1521 6.95703C84.7097 6.95703 84.5154 6.75049 84.5154 6.27881V3.96338H85.491V3.21484H84.5154ZM86.7048 1.43652H87.5857V3.91797H87.656C87.7741 3.65865 87.9694 3.44206 88.215 3.29771C88.4607 3.15337 88.745 3.08828 89.029 3.11133C89.247 3.09947 89.4649 3.13586 89.6671 3.2179C89.8694 3.29995 90.0511 3.42562 90.1992 3.58596C90.3473 3.74629 90.4582 3.93735 90.524 4.14548C90.5898 4.35362 90.6088 4.5737 90.5798 4.79004V7.69727H89.6902V5.00927C89.6902 4.29003 89.3552 3.92577 88.7273 3.92577C88.5746 3.91325 88.421 3.93424 88.2772 3.9873C88.1334 4.04035 88.003 4.12418 87.895 4.23292C87.787 4.34165 87.704 4.47268 87.652 4.61681C87.5999 4.76095 87.58 4.91472 87.5935 5.06737V7.69725H86.7049L86.7048 1.43652ZM95.0224 7.48719C95.3791 7.24904 95.6407 6.89306 95.7615 6.48152L94.906 6.48149C94.8017 6.66847 94.6442 6.82022 94.4534 6.91742C94.2626 7.01463 94.0473 7.05291 93.8347 7.02739C93.6689 7.02923 93.5045 6.9964 93.3521 6.931C93.1997 6.8656 93.0627 6.76908 92.9498 6.64763C92.8369 6.52617 92.7506 6.38246 92.6965 6.22571C92.6423 6.06896 92.6216 5.90263 92.6355 5.73739V5.68759H95.8152V5.3775C95.8152 3.9635 95.0593 3.1075 93.8064 3.1075C93.5089 3.10496 93.2143 3.16637 92.9426 3.28758C92.6709 3.40879 92.4284 3.58696 92.2315 3.81003C92.0346 4.03311 91.888 4.29588 91.8015 4.58055C91.715 4.86522 91.6907 5.16515 91.7302 5.46004C91.6896 5.75402 91.7135 6.0533 91.8002 6.33713C91.8869 6.62095 92.0343 6.8825 92.2322 7.10364C92.4302 7.32478 92.6738 7.5002 92.9463 7.61773C93.2188 7.73526 93.5136 7.79208 93.8103 7.78425C94.2367 7.83049 94.6657 7.72534 95.0224 7.48719ZM94.9099 5.03035H92.6355C92.6335 4.87665 92.6623 4.72411 92.7202 4.58171C92.778 4.43932 92.8638 4.30995 92.9725 4.20124C93.0812 4.09252 93.2105 4.00666 93.3529 3.94872C93.4952 3.89077 93.6478 3.86192 93.8015 3.86385C93.953 3.86037 94.1035 3.88863 94.2435 3.94681C94.3834 4.00498 94.5096 4.09179 94.614 4.20165C94.7184 4.3115 94.7986 4.44198 94.8496 4.5847C94.9005 4.72742 94.9211 4.87922 94.9099 5.03035Z" fill="#6B6B78"/>
</svg>