<svg width="100" height="24" viewBox="0 0 100 24" fill="none" xmlns="http://www.w3.org/2000/svg">
<path fill-rule="evenodd" clip-rule="evenodd" d="M43.76 2.68517C43.76 3.80201 44.6406 4.60993 45.6641 4.62182C46.6757 4.60993 47.5682 3.80201 47.5682 2.68517C47.5682 1.59209 46.7233 0.74852 45.6641 0.736639C44.6049 0.74852 43.76 1.59209 43.76 2.68517ZM42.9626 2.67329C42.9626 1.28318 44.1408 0 45.6641 0C47.1874 0 48.3656 1.28318 48.3656 2.67329C48.3656 4.02775 47.2707 5.33469 45.6641 5.35846C44.0575 5.33469 42.9626 4.01587 42.9626 2.67329ZM26.3219 2.4355H23.8585V3.16026H25.6079C25.5246 4.18205 24.6677 4.62166 23.8704 4.62166C22.8469 4.62166 21.9425 3.81373 21.9425 2.68501C21.9425 1.58005 22.7993 0.736478 23.8704 0.736478C24.7034 0.736478 25.1914 1.25925 25.1914 1.25925L25.7031 0.736478C25.7031 0.736478 25.0486 0.0117188 23.8466 0.0117188C22.3233 0.0117188 21.1451 1.2949 21.1451 2.68501C21.1451 4.03948 22.2519 5.37018 23.8823 5.37018C25.3223 5.37018 26.3695 4.38403 26.3695 2.93452C26.3695 2.61372 26.3219 2.4355 26.3219 2.4355ZM26.7899 14.1744H32.1928C32.1928 14.1744 32.288 14.5664 32.2761 15.2318C32.2761 18.416 29.9673 20.5784 26.8137 20.5784C23.2315 20.5784 20.7919 17.6675 20.7919 14.6853C20.7919 11.6318 23.3863 8.8159 26.7304 8.8159C29.3604 8.8159 30.8004 10.4199 30.8004 10.4199L29.6817 11.5842C29.6817 11.5842 28.6107 10.4318 26.7899 10.4318C24.4335 10.4318 22.5532 12.2971 22.5532 14.7209C22.5532 17.216 24.5287 18.9863 26.7899 18.9863C28.5631 18.9863 30.4315 18.0239 30.6219 15.7783H26.7899V14.1744ZM38.9256 16.7999C38.9256 15.3861 37.9022 14.5069 36.8073 14.5069C35.5815 14.5069 34.6414 15.4811 34.6295 16.7881C34.6295 18.1307 35.5815 19.093 36.7954 19.093C37.9022 19.093 38.9256 18.1901 38.9256 16.7999ZM32.9753 16.7762C32.9753 14.7564 34.57 13.0217 36.7835 13.0217C38.6043 13.0217 40.5917 14.3049 40.5798 16.8237C40.5798 19.0099 38.878 20.5901 36.8073 20.5901C34.5224 20.5901 32.9753 18.8198 32.9753 16.7762ZM45.1787 14.5069C46.2736 14.5069 47.2971 15.3861 47.2971 16.7999C47.2971 18.1901 46.2736 19.093 45.1668 19.093C43.953 19.093 43.0009 18.1307 43.0009 16.7881C43.0128 15.4811 43.953 14.5069 45.1787 14.5069ZM45.1668 13.0217C42.9533 13.0217 41.3586 14.7564 41.3586 16.7762C41.3586 18.8198 42.9057 20.5901 45.1906 20.5901C47.2614 20.5901 48.9632 19.0099 48.9632 16.8237C48.9632 14.3049 46.9876 13.0217 45.1668 13.0217ZM55.5277 16.8118C55.5277 15.3623 54.5042 14.5069 53.5046 14.5069C52.4335 14.5069 51.3863 15.3742 51.3863 16.8237C51.3863 18.2257 52.3978 19.1049 53.4808 19.1049C54.5042 19.1049 55.5277 18.2851 55.5277 16.8118ZM49.7083 16.7999C49.7083 14.8039 51.3149 13.0217 53.3499 13.0217C54.2424 13.0217 54.9089 13.3663 55.4087 13.9009V13.2593H56.9915V20.0554C56.9915 22.7287 55.4444 24 53.4213 24C51.5767 24 50.5294 22.8713 50.0177 21.7782L51.4696 21.1723C51.6719 21.6594 52.255 22.5148 53.4094 22.5148C54.5995 22.5148 55.3968 21.7307 55.3968 20.4237V19.6752C54.9684 20.1623 54.3971 20.5901 53.3142 20.5901C51.5648 20.5901 49.7083 19.0812 49.7083 16.7999ZM64.4433 14.4714C65.1336 14.4714 65.6334 14.8397 65.8476 15.2793L62.4559 16.6932C62.3131 15.5882 63.3485 14.4714 64.4433 14.4714ZM64.3838 13.01C62.4678 13.01 60.8493 14.5308 60.8493 16.7882C60.8493 19.1645 62.6463 20.5784 64.5623 20.5784C66.1689 20.5784 67.1448 19.6991 67.7398 18.915L66.4307 18.0476C66.0856 18.5704 65.5263 19.0932 64.5742 19.0932C63.5151 19.0932 63.0152 18.511 62.7177 17.9526L67.7993 15.8496L67.5375 15.2318C67.0377 14.0199 65.8952 13.01 64.3838 13.01ZM58.2565 9.20806H59.9226V20.3527H58.2565V9.20806ZM82.2917 9.20806H80.6256V20.3527H82.2917V9.20806ZM71.7748 9.20806H73.4409H75.8091C77.7609 9.20806 79.3674 10.8002 79.3674 12.7606C79.3674 14.7091 77.7728 16.3131 75.8091 16.3131H73.4409V20.3527H71.7748V16.3131V9.20806ZM75.8091 14.6497H73.4409V10.8833V10.8714H75.8091C76.8445 10.8714 77.7014 11.7269 77.7014 12.7606C77.7014 13.7942 76.8445 14.6497 75.8091 14.6497ZM99.4278 13.01L94.608 23.9883H92.7753L94.5143 20.037L91.4201 13.01H93.241L95.4253 17.9672L97.607 13.01H99.4278ZM90.7773 20.3525H89.1112V19.4614C88.7185 19.9247 88.2544 20.2693 87.6593 20.4356C86.6002 20.7208 85.3149 20.6138 84.5295 19.7703C84.0297 19.2237 83.8631 18.3445 83.9583 17.6198C84.1368 16.2772 85.2316 15.4692 86.5169 15.3385C87.338 15.2554 88.2425 15.4098 89.0755 15.6356C88.8851 13.8177 86.1242 13.4257 85.1483 15.1247L83.8035 14.2217C85.7909 11.2395 91.0391 12.2138 90.7773 16.3485V20.3525ZM87.2666 18.9742C88.183 18.7247 88.897 18.0594 89.1112 17.1326C88.6471 16.99 88.2187 16.8594 87.7189 16.7999C84.8627 16.3722 85.3387 19.497 87.2666 18.9742ZM36.3817 0.178293H37.1433V5.2516H36.3817V0.178293ZM32.1466 5.25176H32.8964V0.926977H34.146V0.166575H30.8971V0.926977H32.1466V5.25176ZM30.0834 5.25176H27.1678V0.166575H30.0834V0.926977H27.9294V2.32897H29.8216V3.08937H27.9294V4.49136H30.0834V5.25176ZM39.0135 5.25176H39.7632V0.926977H41.0128V0.166575H37.7639V0.926977H39.0135V5.25176ZM49.1265 5.2516H49.8763V1.55652L52.3159 5.2516H53.0776V0.178293H52.3159V3.86149L49.8763 0.178293H49.1265V5.2516ZM1.39294 23.1804C1.30964 23.2279 1.23823 23.2635 1.16683 23.2873L9.35451 15.006L11.8299 17.4774L1.39294 23.1804ZM9.69963 14.6615L12.2821 17.2278L15.8285 15.3031C16.2569 15.0655 16.6972 14.4714 15.8285 13.9961L12.2821 12.0595L9.69963 14.6615ZM1.39294 6.11885L11.818 11.7981L9.34261 14.2932L1.02402 6.00003C1.15493 6.0238 1.28584 6.05944 1.39294 6.11885ZM8.99749 14.6615L0.417086 6.10696C0.167171 6.24954 -0.0113392 6.54657 0.000561531 7.04559C0.000561531 7.57324 0.0200539 11.4968 0.0386698 15.2439C0.0556837 18.6685 0.0719656 21.9459 0.0719656 22.3487C0.0719656 22.7883 0.202873 23.1328 0.452788 23.2873L8.99749 14.6615Z" fill="#6B6B78"/>
</svg>